<svg width="24" height="25" viewBox="0 0 24 25" fill="none" xmlns="http://www.w3.org/2000/svg">
    <g clip-path="url(#clip0_80_1366)">
    <path d="M12 2.29321C17.523 2.29321 22 6.77021 22 12.2932C22 17.8162 17.523 22.2932 12 22.2932C6.477 22.2932 2 17.8162 2 12.2932C2 6.77021 6.477 2.29321 12 2.29321ZM12 6.29321C11.7348 6.29321 11.4804 6.39857 11.2929 6.58611C11.1054 6.77364 11 7.028 11 7.29321V12.2932C11.0001 12.5584 11.1055 12.8127 11.293 13.0002L14.293 16.0002C14.4816 16.1824 14.7342 16.2832 14.9964 16.2809C15.2586 16.2786 15.5094 16.1734 15.6948 15.988C15.8802 15.8026 15.9854 15.5518 15.9877 15.2896C15.99 15.0274 15.8892 14.7748 15.707 14.5862L13 11.8792V7.29321C13 7.028 12.8946 6.77364 12.7071 6.58611C12.5196 6.39857 12.2652 6.29321 12 6.29321Z" fill="#1D42C5"/>
    </g>
    <defs>
    <clipPath id="clip0_80_1366">
    <rect width="24" height="24" fill="white" transform="translate(0 0.293213)"/>
    </clipPath>
    </defs>
    </svg>
    