<svg width="24" height="25" viewBox="0 0 24 25" fill="none" xmlns="http://www.w3.org/2000/svg">
    <path d="M12 1.79321C9.81276 1.79579 7.71584 2.66582 6.16922 4.21243C4.62261 5.75905 3.75259 7.85597 3.75001 10.0432C3.74799 11.8305 4.33179 13.5693 5.41201 14.9932C5.41201 14.9932 5.63701 15.2895 5.67376 15.3322L12 22.7932L18.3293 15.3285C18.3623 15.2887 18.588 14.9932 18.588 14.9932L18.5888 14.991C19.6682 13.5675 20.2517 11.8297 20.25 10.0432C20.2474 7.85597 19.3774 5.75905 17.8308 4.21243C16.2842 2.66582 14.1872 1.79579 12 1.79321ZM12 13.0432C11.4067 13.0432 10.8266 12.8673 10.3333 12.5376C9.83995 12.208 9.45543 11.7394 9.22837 11.1913C9.0013 10.6431 8.94189 10.0399 9.05765 9.45794C9.1734 8.876 9.45913 8.34145 9.87868 7.92189C10.2982 7.50234 10.8328 7.21661 11.4147 7.10086C11.9967 6.9851 12.5999 7.04451 13.1481 7.27157C13.6962 7.49864 14.1648 7.88315 14.4944 8.3765C14.8241 8.86985 15 9.44987 15 10.0432C14.999 10.8386 14.6826 11.601 14.1202 12.1634C13.5578 12.7258 12.7953 13.0422 12 13.0432Z" fill="#1D42C5"/>
    </svg>
    