<svg width="24" height="24" viewBox="0 0 24 24" fill="none" xmlns="http://www.w3.org/2000/svg">
    <path d="M10.5 20.9999C10.5 20.9999 9 20.9999 9 19.4999C9 17.9999 10.5 13.4999 16.5 13.4999C22.5 13.4999 24 17.9999 24 19.4999C24 20.9999 22.5 20.9999 22.5 20.9999H10.5ZM16.5 11.9999C17.6935 11.9999 18.8381 11.5258 19.682 10.6819C20.5259 9.83794 21 8.69335 21 7.49988C21 6.3064 20.5259 5.16181 19.682 4.3179C18.8381 3.47398 17.6935 2.99988 16.5 2.99988C15.3065 2.99988 14.1619 3.47398 13.318 4.3179C12.4741 5.16181 12 6.3064 12 7.49988C12 8.69335 12.4741 9.83794 13.318 10.6819C14.1619 11.5258 15.3065 11.9999 16.5 11.9999ZM7.824 20.9999C7.60174 20.5316 7.49084 20.0182 7.5 19.4999C7.5 17.4674 8.52 15.3749 10.404 13.9199C9.46377 13.6295 8.48396 13.4878 7.5 13.4999C1.5 13.4999 0 17.9999 0 19.4999C0 20.9999 1.5 20.9999 1.5 20.9999H7.824ZM6.75 11.9999C7.74456 11.9999 8.69839 11.6048 9.40165 10.9015C10.1049 10.1983 10.5 9.24444 10.5 8.24988C10.5 7.25532 10.1049 6.30149 9.40165 5.59823C8.69839 4.89497 7.74456 4.49988 6.75 4.49988C5.75544 4.49988 4.80161 4.89497 4.09835 5.59823C3.39509 6.30149 3 7.25532 3 8.24988C3 9.24444 3.39509 10.1983 4.09835 10.9015C4.80161 11.6048 5.75544 11.9999 6.75 11.9999Z" fill="white"/>
    </svg>
    